<?xml version="1.0" standalone="no"?>
<!DOCTYPE svg PUBLIC "-//W3C//DTD SVG 20010904//EN"
 "http://www.w3.org/TR/2001/REC-SVG-20010904/DTD/svg10.dtd">
<svg version="1.0" xmlns="http://www.w3.org/2000/svg"
 width="260.000000pt" height="260.000000pt" viewBox="0 0 260.000000 260.000000"
 preserveAspectRatio="xMidYMid meet">
<metadata>
Created by potrace 1.11, written by Peter Selinger 2001-2013
</metadata>
<g transform="translate(0.000000,260.000000) scale(0.100000,-0.100000)"
fill="#000000" stroke="none">
<path d="M0 1300 l0 -1300 1300 0 1300 0 0 1300 0 1300 -1300 0 -1300 0 0
-1300z m960 1020 c0 -57 -4 -80 -12 -80 -32 0 -90 -23 -118 -47 -63 -52 -64
-59 -71 -383 -5 -273 -7 -299 -28 -352 -16 -41 -37 -70 -73 -103 -27 -25 -56
-45 -64 -45 -22 0 -16 -18 7 -25 43 -14 108 -85 130 -143 21 -53 23 -79 28
-357 6 -291 7 -301 29 -341 29 -49 65 -72 126 -80 l46 -7 0 -78 0 -79 -42 0
c-24 0 -65 6 -93 14 -112 30 -175 81 -222 181 l-28 60 -6 300 c-4 208 -10 311
-19 337 -21 60 -59 97 -120 118 l-55 19 -3 69 -3 69 47 12 c58 15 117 70 134
126 8 26 15 145 20 335 4 169 12 309 18 328 47 140 170 228 325 231 l47 1 0
-80z m1210 -1900 l0 -70 -505 0 -505 0 0 70 0 70 505 0 505 0 0 -70z"/>
</g>
</svg>
